<svg width="14" height="14" viewBox="0 0 14 14" fill="none" xmlns="http://www.w3.org/2000/svg">
<path d="M6.33334 3.66659H7.66668V4.99992H6.33334V3.66659ZM6.33334 6.33325H7.66668V10.3333H6.33334V6.33325ZM7.00001 0.333252C3.32001 0.333252 0.333344 3.31992 0.333344 6.99992C0.333344 10.6799 3.32001 13.6666 7.00001 13.6666C10.68 13.6666 13.6667 10.6799 13.6667 6.99992C13.6667 3.31992 10.68 0.333252 7.00001 0.333252ZM7.00001 12.3333C4.06001 12.3333 1.66668 9.93992 1.66668 6.99992C1.66668 4.05992 4.06001 1.66659 7.00001 1.66659C9.94001 1.66659 12.3333 4.05992 12.3333 6.99992C12.3333 9.93992 9.94001 12.3333 7.00001 12.3333Z" fill="black" fill-opacity="0.54"/>
</svg>
